<svg width="161" height="35" viewBox="0 0 161 35" fill="none" xmlns="http://www.w3.org/2000/svg">
<path d="M40 31.5475V3.45253H50.0087C51.8861 3.45253 53.5352 3.80451 54.9559 4.50845C56.3767 5.2124 57.4803 6.21803 58.2668 7.52536C59.0787 8.83268 59.4846 10.3663 59.4846 12.1261C59.4846 13.886 59.0787 15.4196 58.2668 16.7269C57.4803 18.0091 56.3767 19.0147 54.9559 19.7438C53.5606 20.4478 51.9115 20.7997 50.0087 20.7997H43.7295V31.5475H40ZM43.7295 17.4057H50.1229C51.2645 17.4057 52.254 17.192 53.0912 16.7646C53.9284 16.3372 54.5754 15.7213 55.0321 14.9168C55.4887 14.1123 55.7171 13.1821 55.7171 12.1261C55.7171 11.0451 55.4887 10.1149 55.0321 9.3355C54.5754 8.53099 53.9284 7.91504 53.0912 7.48765C52.254 7.06025 51.2645 6.84655 50.1229 6.84655H43.7295V17.4057Z" fill="white"/>
<path d="M62.5873 31.5475V3H66.1265V31.5475H62.5873Z" fill="white"/>
<path d="M79.8382 32C77.8593 32 76.0707 31.5475 74.4723 30.6424C72.874 29.7122 71.6055 28.4426 70.6668 26.8336C69.728 25.2245 69.2587 23.4018 69.2587 21.3654C69.2587 19.329 69.7154 17.5189 70.6287 15.935C71.5674 14.3511 72.8359 13.0941 74.4343 12.1639C76.0326 11.2336 77.8339 10.7685 79.8382 10.7685C81.8171 10.7685 83.6057 11.2336 85.2041 12.1639C86.8024 13.0689 88.0583 14.3134 88.9716 15.8973C89.9103 17.4811 90.3797 19.3039 90.3797 21.3654C90.3797 23.427 89.8976 25.2622 88.9336 26.8713C87.9695 28.4551 86.6883 29.7122 85.0899 30.6424C83.5169 31.5475 81.7664 32 79.8382 32ZM79.8382 28.606C81.1067 28.606 82.2484 28.2917 83.2632 27.6632C84.3034 27.0347 85.1153 26.1673 85.6988 25.0611C86.3077 23.9549 86.6122 22.723 86.6122 21.3654C86.6122 19.9827 86.3077 18.7633 85.6988 17.7074C85.1153 16.6264 84.3034 15.7716 83.2632 15.143C82.2484 14.4894 81.1067 14.1625 79.8382 14.1625C78.5443 14.1625 77.3773 14.4894 76.3371 15.143C75.3223 15.7716 74.5104 16.6264 73.9015 17.7074C73.2926 18.7633 72.9882 19.9827 72.9882 21.3654C72.9882 22.723 73.2926 23.9549 73.9015 25.0611C74.5104 26.1673 75.3223 27.0347 76.3371 27.6632C77.3773 28.2917 78.5443 28.606 79.8382 28.606Z" fill="white"/>
<path d="M101.436 31.7737C99.4318 31.7737 97.8842 31.2081 96.7933 30.0767C95.7277 28.9454 95.1949 27.3489 95.1949 25.2874V14.5774H91.4655V11.2211H92.2266C93.1399 11.2211 93.863 10.9445 94.3958 10.3914C94.9285 9.83832 95.1949 9.10923 95.1949 8.20416V6.54486H98.7341V11.2211H103.339V14.5774H98.7341V25.1743C98.7341 25.8531 98.8356 26.4439 99.0386 26.9467C99.2669 27.4495 99.6348 27.8518 100.142 28.1534C100.65 28.43 101.322 28.5683 102.159 28.5683C102.337 28.5683 102.552 28.5557 102.806 28.5306C103.085 28.5054 103.339 28.4803 103.567 28.4551V31.5475C103.237 31.6229 102.87 31.6732 102.464 31.6983C102.058 31.7486 101.715 31.7737 101.436 31.7737Z" fill="white"/>
<path d="M106.668 31.5475V3H110.207V31.5475H106.668Z" fill="white"/>
<path d="M114.177 31.5475V11.2211H117.716V31.5475H114.177ZM114.177 7.97789V3.45253H117.716V7.97789H114.177Z" fill="white"/>
<path d="M121.685 31.5475V11.2211H125.148V15.1808L124.578 14.8414C125.085 13.5592 125.897 12.5661 127.013 11.8622C128.155 11.1331 129.487 10.7685 131.009 10.7685C132.481 10.7685 133.787 11.0954 134.929 11.749C136.096 12.4027 137.009 13.3078 137.669 14.4642C138.354 15.6207 138.696 16.928 138.696 18.3862V31.5475H135.119V19.5176C135.119 18.3862 134.916 17.4309 134.51 16.6515C134.104 15.8721 133.521 15.2687 132.76 14.8414C132.024 14.3888 131.174 14.1625 130.21 14.1625C129.246 14.1625 128.383 14.3888 127.622 14.8414C126.886 15.2687 126.303 15.8847 125.871 16.6892C125.44 17.4686 125.225 18.4114 125.225 19.5176V31.5475H121.685Z" fill="white"/>
<path d="M151.676 32C149.697 32 147.934 31.5349 146.387 30.6047C144.839 29.6745 143.621 28.4049 142.733 26.7958C141.845 25.1617 141.401 23.339 141.401 21.3277C141.401 19.2913 141.833 17.4811 142.695 15.8973C143.583 14.3134 144.776 13.0689 146.272 12.1639C147.795 11.2336 149.494 10.7685 151.372 10.7685C152.894 10.7685 154.239 11.0451 155.406 11.5982C156.598 12.1261 157.6 12.8552 158.412 13.7854C159.249 14.6905 159.884 15.7339 160.315 16.9155C160.772 18.072 161 19.2787 161 20.5358C161 20.8123 160.975 21.1266 160.924 21.4785C160.899 21.8054 160.86 22.1196 160.81 22.4213H143.989V19.4044H158.755L157.08 20.762C157.309 19.4547 157.182 18.2857 156.7 17.2549C156.218 16.2241 155.507 15.407 154.569 14.8036C153.63 14.2003 152.564 13.8986 151.372 13.8986C150.179 13.8986 149.089 14.2003 148.099 14.8036C147.11 15.407 146.336 16.2744 145.778 17.4057C145.245 18.5119 145.029 19.8318 145.131 21.3654C145.029 22.8487 145.258 24.156 145.816 25.2874C146.399 26.3936 147.211 27.2609 148.251 27.8895C149.317 28.4928 150.471 28.7945 151.714 28.7945C153.084 28.7945 154.239 28.4803 155.177 27.8518C156.116 27.2232 156.877 26.4187 157.461 25.4382L160.429 26.9467C160.023 27.8769 159.389 28.7317 158.526 29.5111C157.689 30.2653 156.687 30.8687 155.52 31.3212C154.378 31.7737 153.097 32 151.676 32Z" fill="white"/>
<path d="M0 18.5644V8.33002C0 2.50784 6.02077 -1.3644 11.3184 1.05072L28.5928 8.92572C33.3344 11.0875 33.2555 17.8508 28.4648 19.9013L17.0752 24.7753C13.1163 26.4696 8.71485 23.5659 8.71484 19.2597V12.3076H12.7148V19.2597C12.7148 20.6949 14.1815 21.6629 15.501 21.0986L26.8906 16.2236C28.4876 15.5401 28.5142 13.286 26.9336 12.5654L9.65918 4.69037C7.01036 3.48274 4 5.41891 4 8.33002V18.5644C4.00005 23.9914 7.37141 28.8471 12.4561 30.7441L13.4795 31.1259L12.0811 34.874L11.0586 34.4921C4.40914 32.0116 4.55099e-05 25.6614 0 18.5644Z" fill="#FF1744"/>
</svg>
