<svg width="33" height="35" viewBox="0 0 33 35" fill="none" xmlns="http://www.w3.org/2000/svg">
<path d="M0 18.2437V8.00934C0 2.18716 6.02077 -1.68508 11.3184 0.730044L28.5928 8.60504C33.3344 10.7668 33.2555 17.5301 28.4648 19.5806L17.0752 24.4547C13.1163 26.1489 8.71485 23.2452 8.71484 18.939V11.9869H12.7148V18.939C12.7148 20.3743 14.1815 21.3422 15.501 20.7779L26.8906 15.9029C28.4876 15.2194 28.5142 12.9653 26.9336 12.2447L9.65918 4.36969C7.01036 3.16206 4 5.09823 4 8.00934V18.2437C4.00005 23.6707 7.37141 28.5265 12.4561 30.4234L13.4795 30.8052L12.0811 34.5533L11.0586 34.1715C4.40914 31.691 4.55099e-05 25.3408 0 18.2437Z" fill="#FF1744"/>
</svg>
